<?xml version="1.0" encoding="utf-8"?>
<!-- Generator: Adobe Illustrator 27.5.0, SVG Export Plug-In . SVG Version: 6.00 Build 0)  -->
<svg version="1.1" xmlns="http://www.w3.org/2000/svg" xmlns:xlink="http://www.w3.org/1999/xlink" x="0px" y="0px"
	 viewBox="0 0 500 500" style="enable-background:new 0 0 500 500;" xml:space="preserve">
<g id="Floor">
	<ellipse id="Floor_11_" style="fill:#F0F0F0;" cx="250" cy="333.541" rx="232.871" ry="134.448"/>
</g>
<g id="Clouds">
	<g id="Clouds_1_">
		<g id="XMLID_204_">
			<path id="XMLID_205_" style="fill:#EBEBEB;" d="M152.15,57.954l-6.552,3.783c0.032-0.293,0.055-0.583,0.055-0.867v-1.898
				c0-3.378-2.371-4.747-5.297-3.058c-1.185,0.684-2.275,1.768-3.157,3.036c-0.479-4.247-3.812-5.829-7.859-3.493
				c-4.376,2.527-7.924,8.672-7.924,13.725v2.84c0,1.309,0.242,2.411,0.671,3.29l-5.442,3.142c-1.623,0.937-2.938,3.215-2.938,5.089
				c0,1.874,1.315,2.633,2.938,1.696l35.505-20.498c1.623-0.937,2.938-3.215,2.938-5.089
				C155.088,57.777,153.773,57.017,152.15,57.954z"/>
		</g>
		<g id="XMLID_202_">
			<path id="XMLID_203_" style="fill:#EBEBEB;" d="M89.832,47.765l-3.614,1.39v-7.962c0-6.311-5.034-7.825-10.5-4.669l0,0
				c-5.466,3.156-9.897,10.831-9.897,17.142v1.156c-1.24-0.495-2.842-0.303-4.593,0.708l0,0c-3.934,2.271-7.122,7.794-7.122,12.336
				v0.525l-5.039,2.91c-2.59,1.496-4.69,5.133-4.69,8.123c0,2.991,2.1,4.203,4.69,2.708l40.766-23.536
				c2.59-1.496,4.69-5.132,4.69-8.124S92.422,46.269,89.832,47.765z"/>
		</g>
	</g>
</g>
<g id="Land_2_">
	<g id="Land_1_">
		<g>
			<polygon style="fill:#B16668;" points="29.235,292.625 29.235,312.463 102.252,354.619 102.253,334.781 			"/>
			<polygon style="fill:#F28F8F;" points="102.252,354.619 243.99,272.787 243.99,252.949 102.253,334.781 			"/>
		</g>
		<g id="XMLID_260_">
			<polygon id="XMLID_718_" style="fill:#27DEBF;" points="170.973,205.833 20.645,292.598 20.645,297.584 102.252,344.7 
				252.58,257.908 252.58,252.922 			"/>
			<polyline id="XMLID_637_" style="opacity:0.15;" points="20.645,292.598 102.253,339.714 102.252,344.7 20.645,297.584 
				20.645,292.598 			"/>
			<polygon id="XMLID_622_" style="opacity:0.1;" points="102.253,339.714 252.58,252.922 252.58,257.908 102.252,344.7 			"/>
		</g>
	</g>
	<g id="Cables_4_">
		<g>
			<path style="fill:#27DEBF;" d="M203.377,358.323l-58.793-33.944l-0.001,0.001c-0.274-0.161-0.653-0.14-1.072,0.103
				c-0.835,0.482-1.511,1.654-1.511,2.617c0,0.484,0.171,0.823,0.447,0.98l58.766,33.929L203.377,358.323z"/>
			<path style="opacity:0.7;fill:#FFFFFF;" d="M203.377,358.323l-58.793-33.944l-0.001,0.001c-0.274-0.161-0.653-0.14-1.072,0.103
				c-0.835,0.482-1.511,1.654-1.511,2.617c0,0.484,0.171,0.823,0.447,0.98l58.766,33.929L203.377,358.323z"/>
		</g>
		<g>
			<path style="fill:#27DEBF;" d="M204.968,354.257l-55.837-32.237l0,0.001c-0.137-0.08-0.326-0.07-0.536,0.051
				c-0.417,0.241-0.755,0.827-0.755,1.309c0,0.242,0.086,0.412,0.223,0.49l55.823,32.23L204.968,354.257z"/>
			<path style="opacity:0.2;" d="M204.968,354.257l-55.837-32.237l0,0.001c-0.137-0.08-0.326-0.07-0.536,0.051
				c-0.417,0.241-0.755,0.827-0.755,1.309c0,0.242,0.086,0.412,0.223,0.49l55.823,32.23L204.968,354.257z"/>
		</g>
	</g>
	<g id="Cables_3_">
		<g>
			<path style="fill:#27DEBF;" d="M274.826,316.589l-58.793-33.944l-0.001,0.001c-0.274-0.161-0.653-0.14-1.072,0.102
				c-0.835,0.482-1.511,1.654-1.511,2.617c0,0.484,0.171,0.823,0.447,0.98l58.766,33.929L274.826,316.589z"/>
			<path style="opacity:0.7;fill:#FFFFFF;" d="M274.826,316.589l-58.793-33.944l-0.001,0.001c-0.274-0.161-0.653-0.14-1.072,0.102
				c-0.835,0.482-1.511,1.654-1.511,2.617c0,0.484,0.171,0.823,0.447,0.98l58.766,33.929L274.826,316.589z"/>
		</g>
		<g>
			<path style="fill:#27DEBF;" d="M276.417,312.523l-55.837-32.237l0,0.001c-0.137-0.08-0.326-0.07-0.536,0.051
				c-0.417,0.241-0.755,0.827-0.755,1.309c0,0.242,0.086,0.412,0.223,0.49l55.823,32.23L276.417,312.523z"/>
			<path style="opacity:0.2;" d="M276.417,312.523l-55.837-32.237l0,0.001c-0.137-0.08-0.326-0.07-0.536,0.051
				c-0.417,0.241-0.755,0.827-0.755,1.309c0,0.242,0.086,0.412,0.223,0.49l55.823,32.23L276.417,312.523z"/>
		</g>
	</g>
	<g id="Land">
		<g>
			<polygon style="fill:#B16668;" points="188.266,353.789 188.266,373.627 312.823,445.54 312.824,425.702 			"/>
			<polygon style="fill:#F28F8F;" points="312.823,445.54 458.858,361.228 458.858,341.39 312.824,425.702 			"/>
		</g>
		<g id="XMLID_3285_">
			<polygon id="XMLID_3480_" style="fill:#27DEBF;" points="332.495,262.614 177.041,352.241 177.041,357.227 312.824,435.621 
				468.279,346.003 468.279,341.017 			"/>
			<polyline id="XMLID_3448_" style="opacity:0.15;" points="177.041,352.241 312.825,430.636 312.824,435.621 177.041,357.227 
				177.041,352.241 			"/>
			<polygon id="XMLID_3288_" style="opacity:0.1;" points="312.825,430.636 468.279,341.017 468.279,346.003 312.824,435.621 			"/>
		</g>
	</g>
</g>
<g id="House_1_">
	<g id="House">
		<g id="XMLID_264_">
			<g>
				<polygon id="XMLID_1128_" style="fill:#F0F0F0;" points="272.042,320.127 362.723,364.84 362.723,292.703 272.041,240.348 				
					"/>
				<polygon id="XMLID_1119_" style="fill:#E0E0E0;" points="272.04,254.083 362.722,306.438 362.724,292.702 272.042,240.347 				
					"/>
			</g>
			<polygon style="fill:#FAFAFA;" points="362.723,364.84 423.179,329.934 423.178,257.8 423.178,257.8 423.178,257.8 
				392.95,240.348 362.723,292.703 362.724,292.702 362.723,292.703 			"/>
			<g>
				<polygon id="XMLID_1111_" style="fill:#37474F;" points="358.405,300.182 392.95,240.348 392.949,236.608 358.404,296.442 				
					"/>
				
					<rect id="XMLID_1109_" x="295.79" y="187.993" transform="matrix(0.5 -0.866 0.866 0.5 -42.9786 406.2552)" style="fill:#455A64;" width="69.09" height="104.71"/>
				<polygon id="XMLID_1108_" style="fill:#263238;" points="267.722,244.088 358.404,296.442 358.405,300.182 267.723,247.827 				
					"/>
			</g>
			<g>
				<polygon id="XMLID_1106_" style="fill:#37474F;" points="392.95,236.608 430.734,258.423 427.495,260.293 392.95,240.348 				
					"/>
				<polygon id="XMLID_1104_" style="fill:#263238;" points="427.495,260.293 423.177,260.293 423.178,257.8 				"/>
			</g>
			<g id="XMLID_675_">
				<polygon id="XMLID_757_" style="fill:#F0F0F0;" points="289.241,237.709 289.241,219.756 299.58,213.787 309.881,231.628 
					309.881,249.637 				"/>
				<polygon id="XMLID_756_" style="opacity:0.2;" points="299.58,213.787 286.825,221.151 285.192,220.208 299.58,211.901 				"/>
				<polygon id="XMLID_755_" style="fill:#FAFAFA;" points="309.879,249.636 320.185,231.753 325.453,222.613 309.879,231.623 				
					"/>
				<polygon id="XMLID_754_" style="opacity:0.4;" points="286.825,221.151 289.241,221.151 289.241,219.756 				"/>
				<polygon id="XMLID_753_" style="fill:#263238;" points="312.336,235.88 299.58,213.787 299.58,211.901 313.93,236.801 				"/>
				<polygon id="XMLID_737_" style="fill:#37474F;" points="313.93,236.801 299.58,211.901 314.419,203.319 328.769,228.218 				"/>
				<g id="XMLID_679_">
					<polygon id="XMLID_691_" style="fill:#455A64;" points="304.721,228.739 294.401,222.777 294.401,234.684 304.721,240.647 
											"/>
					<polygon id="XMLID_690_" style="fill:#E0E0E0;" points="295.458,234.072 295.458,223.387 304.721,228.739 304.721,239.424 
											"/>
					<polygon id="XMLID_684_" style="fill:#37474F;" points="294.401,234.684 295.458,234.072 304.721,239.424 304.721,240.647 
											"/>
				</g>
			</g>
			<g id="XMLID_624_">
				<polygon id="XMLID_673_" style="fill:#F0F0F0;" points="332.416,262.641 332.416,244.688 342.755,238.719 353.055,256.56 
					353.055,274.568 				"/>
				<polygon id="XMLID_666_" style="opacity:0.2;" points="342.755,238.719 330,246.083 328.366,245.14 342.755,236.833 				"/>
				<polygon id="XMLID_665_" style="fill:#FAFAFA;" points="353.054,274.568 363.36,256.685 368.627,247.545 353.054,256.555 				
					"/>
				<polygon id="XMLID_663_" style="opacity:0.4;" points="330,246.083 332.416,246.083 332.416,244.688 				"/>
				<polygon id="XMLID_662_" style="fill:#263238;" points="355.51,260.812 342.755,238.719 342.755,236.833 357.105,261.732 				
					"/>
				<polygon id="XMLID_642_" style="fill:#37474F;" points="357.105,261.732 342.755,236.833 357.593,228.251 371.943,253.15 				
					"/>
				<g id="XMLID_625_">
					<polygon id="XMLID_634_" style="fill:#455A64;" points="347.896,253.671 337.576,247.709 337.576,259.616 347.896,265.579 
											"/>
					<polygon id="XMLID_628_" style="fill:#E0E0E0;" points="338.632,259.004 338.632,248.319 347.896,253.671 347.896,264.356 
											"/>
					<polygon id="XMLID_626_" style="fill:#37474F;" points="337.576,259.616 338.632,259.004 347.896,264.356 347.896,265.579 
											"/>
				</g>
			</g>
			<g id="XMLID_281_">
				<polygon id="XMLID_380_" style="fill:#263238;" points="399.188,313.095 420.778,300.63 420.778,323.566 399.188,336.031 				
					"/>
				<polygon id="XMLID_325_" style="fill:#E6E6E6;" points="419.452,322.797 419.452,301.395 399.188,313.095 399.188,334.496 				
					"/>
				<polygon id="XMLID_315_" style="fill:#E0E0E0;" points="419.452,301.395 419.452,303.587 399.187,315.286 399.188,313.095 				
					"/>
				<polygon id="XMLID_314_" style="fill:#37474F;" points="420.778,323.566 419.452,322.797 399.188,334.496 399.188,336.031 				
					"/>
				<polygon id="XMLID_292_" style="fill:#37474F;" points="420.778,312.098 419.452,311.329 399.188,323.028 399.188,324.563 				
					"/>
				<polygon id="XMLID_282_" style="fill:#37474F;" points="410.43,329.54 409.103,330.306 409.103,307.37 410.43,306.604 				"/>
			</g>
			<g id="XMLID_268_">
				<polygon id="XMLID_270_" style="fill:#37474F;" points="374.676,357.942 374.676,325.003 391.625,315.213 391.625,348.152 				
					"/>
				<polygon id="XMLID_269_" style="fill:#455A64;" points="390.843,347.559 390.843,315.664 374.677,325.003 374.677,356.898 				
					"/>
				<polygon id="XMLID_301_" style="fill:#263238;" points="391.625,315.213 390.843,315.664 390.843,347.559 391.625,348.152 				
					"/>
			</g>
			<g>
				<polygon id="XMLID_3925_" style="fill:#E0E0E0;" points="411.279,296.361 372.674,318.648 372.674,307.505 411.279,285.037 				
					"/>
				<g id="XMLID_3918_">
					<polygon id="XMLID_3924_" style="fill:#455A64;" points="384.257,271.053 399.697,262.138 399.697,289.674 384.257,298.59 
											"/>
					<polygon id="XMLID_3923_" style="fill:#E6E6E6;" points="399.078,289.321 399.078,262.495 384.257,271.053 384.257,297.874 
											"/>
					<polygon id="XMLID_3922_" style="fill:#E0E0E0;" points="399.078,262.495 399.078,265.222 384.257,273.781 384.257,271.053 
											"/>
					<polygon id="XMLID_3921_" style="fill:#37474F;" points="399.697,289.674 399.078,289.321 384.257,297.874 384.257,298.59 
											"/>
					<polygon id="XMLID_3920_" style="fill:#455A64;" points="392.596,266.238 391.978,266.595 391.978,294.131 392.596,293.78 
											"/>
					<polygon id="XMLID_3919_" style="fill:#37474F;" points="391.978,266.595 391.978,294.131 391.357,293.776 391.357,266.95 
											"/>
				</g>
				<g id="XMLID_3914_">
					<polygon id="XMLID_3917_" style="fill:#E0E0E0;" points="372.674,305.276 411.279,282.988 419,287.446 380.396,309.734 					
						"/>
					<polygon id="XMLID_3916_" style="fill:#EBEBEB;" points="372.674,305.276 372.674,307.505 380.396,311.962 380.396,309.734 
											"/>
					<polygon id="XMLID_3915_" style="fill:#F5F5F5;" points="380.396,309.734 419,287.446 419,289.674 380.396,311.962 					"/>
				</g>
				<g id="XMLID_617_">
					<g>
						<path id="XMLID_3913_" style="fill:#37474F;" d="M380.675,295.246v13.248c0,0.041-0.027,0.083-0.082,0.114
							c-0.109,0.063-0.286,0.063-0.396,0c-0.055-0.031-0.082-0.073-0.082-0.114v-13.248H380.675z"/>
						<path id="XMLID_3911_" style="fill:#37474F;" d="M384.012,293.32v13.248c0,0.041-0.027,0.083-0.082,0.114
							c-0.109,0.063-0.287,0.063-0.396,0c-0.055-0.032-0.082-0.073-0.082-0.114V293.32H384.012z"/>
						<path id="XMLID_3910_" style="fill:#37474F;" d="M387.349,291.393v13.248c0,0.041-0.027,0.083-0.082,0.114
							c-0.109,0.063-0.286,0.063-0.396,0c-0.055-0.031-0.082-0.073-0.082-0.114v-13.248H387.349z"/>
						<path id="XMLID_3908_" style="fill:#37474F;" d="M390.686,289.467v13.248c0,0.041-0.027,0.083-0.082,0.114
							c-0.109,0.063-0.287,0.063-0.396,0c-0.055-0.032-0.082-0.073-0.082-0.114v-13.248H390.686z"/>
						<path id="XMLID_3907_" style="fill:#37474F;" d="M394.022,287.54v13.248c0,0.041-0.027,0.083-0.082,0.114
							c-0.109,0.063-0.287,0.063-0.396,0c-0.055-0.032-0.082-0.073-0.082-0.114V287.54H394.022z"/>
						<path id="XMLID_3905_" style="fill:#37474F;" d="M397.359,285.613v13.248c0,0.041-0.027,0.083-0.082,0.114
							c-0.109,0.063-0.287,0.063-0.396,0c-0.055-0.031-0.082-0.073-0.082-0.114v-13.248H397.359z"/>
						<path id="XMLID_3900_" style="fill:#37474F;" d="M400.696,283.687v13.248c0,0.041-0.027,0.083-0.082,0.114
							c-0.109,0.063-0.287,0.063-0.396,0c-0.055-0.031-0.082-0.073-0.082-0.114v-13.248H400.696z"/>
						<path id="XMLID_3898_" style="fill:#37474F;" d="M404.033,281.76v13.248c0,0.041-0.027,0.083-0.082,0.114
							c-0.109,0.063-0.287,0.063-0.396,0c-0.055-0.032-0.082-0.073-0.082-0.114V281.76H404.033z"/>
						<path id="XMLID_3896_" style="fill:#37474F;" d="M407.37,279.834v13.248c0,0.041-0.027,0.083-0.082,0.114
							c-0.109,0.063-0.287,0.063-0.396,0c-0.055-0.031-0.082-0.073-0.082-0.114v-13.248H407.37z"/>
						<path id="XMLID_3894_" style="fill:#37474F;" d="M410.706,277.908v13.248c0,0.041-0.027,0.083-0.082,0.114
							c-0.109,0.063-0.287,0.063-0.396,0c-0.055-0.032-0.082-0.073-0.082-0.114v-13.248H410.706z"/>
						<path id="XMLID_3892_" style="fill:#37474F;" d="M414.043,275.981v13.248c0,0.041-0.027,0.083-0.082,0.114
							c-0.109,0.063-0.286,0.063-0.396,0c-0.055-0.031-0.082-0.073-0.082-0.114v-13.248H414.043z"/>
						<path id="XMLID_1124_" style="fill:#37474F;" d="M417.38,274.054v13.248c0,0.041-0.027,0.083-0.082,0.114
							c-0.109,0.063-0.286,0.063-0.396,0c-0.055-0.031-0.082-0.073-0.082-0.114v-13.248H417.38z"/>
					</g>
					<g id="XMLID_619_">
						<path id="XMLID_621_" style="fill:#455A64;" d="M380.396,295.721c-0.081,0-0.161-0.02-0.234-0.062l-6.207-3.518
							c-0.228-0.129-0.309-0.418-0.179-0.647c0.129-0.23,0.421-0.311,0.647-0.179l5.971,3.383l37.65-21.738l-8.793-5.001
							c-0.228-0.13-0.308-0.419-0.178-0.648c0.129-0.229,0.419-0.307,0.648-0.178l9.514,5.412c0.149,0.084,0.24,0.241,0.241,0.411
							c0.001,0.171-0.09,0.329-0.238,0.413l-38.604,22.288C380.56,295.7,380.477,295.721,380.396,295.721z"/>
					</g>
				</g>
			</g>
		</g>
		<g id="XMLID_429_">
			<g id="XMLID_3902_">
				<polygon id="XMLID_3904_" style="fill:#F0F0F0;" points="302.431,390.973 219.347,343.03 219.347,301.707 302.431,349.651 				
					"/>
				<polygon id="XMLID_3903_" style="fill:#E0E0E0;" points="302.431,349.651 302.431,360.922 219.348,312.979 219.347,301.707 				
					"/>
			</g>
			<g id="XMLID_447_">
				<g id="XMLID_3889_">
					<polygon id="XMLID_3890_" style="fill:#FAFAFA;" points="302.431,390.973 355.125,360.454 355.125,308.229 302.431,349.651 
											"/>
				</g>
				<g id="XMLID_451_">
					<polygon id="XMLID_3888_" style="fill:#455A64;" points="307.519,388.036 307.519,358.664 350.037,334.016 350.037,363.388 
											"/>
					<polygon id="XMLID_3887_" style="fill:#263238;" points="350.037,334.016 349.556,334.293 349.556,363.113 350.037,363.377 
											"/>
					<polygon id="XMLID_3886_" style="fill:#37474F;" points="349.548,363.115 307.519,387.491 307.519,388.036 350.037,363.388 
											"/>
				</g>
			</g>
			<g id="XMLID_441_">
				<polygon id="XMLID_445_" style="fill:#37474F;" points="301.414,354.938 357.669,309.698 357.669,306.761 301.414,352 				"/>
				<polygon id="XMLID_444_" style="fill:#263238;" points="301.414,354.938 215.785,305.526 215.785,302.588 301.414,352 				"/>
				<polygon id="XMLID_443_" style="fill:#455A64;" points="272.041,257.349 357.669,306.761 301.414,352 215.785,302.588 				"/>
			</g>
			<g>
				<g id="XMLID_607_">
					<polygon id="XMLID_616_" style="fill:#263238;" points="252.252,328.89 230.662,316.425 230.662,339.361 252.252,351.827 					
						"/>
					<polygon id="XMLID_615_" style="fill:#FAFAFA;" points="231.988,338.593 231.988,317.191 252.252,328.89 252.252,350.292 					
						"/>
					<polygon id="XMLID_614_" style="fill:#F0F0F0;" points="231.988,317.191 231.988,322.181 252.253,333.881 252.252,328.89 					
						"/>
					<polygon id="XMLID_613_" style="fill:#37474F;" points="230.662,339.361 231.988,338.593 252.252,350.292 252.252,351.827 
											"/>
					<polygon id="XMLID_611_" style="fill:#37474F;" points="230.662,327.893 231.988,327.124 252.252,338.824 252.252,340.358 
											"/>
					<polygon id="XMLID_609_" style="fill:#37474F;" points="241.01,345.336 242.336,346.102 242.336,323.165 241.01,322.399 					
						"/>
				</g>
				<g id="XMLID_453_">
					<polygon id="XMLID_595_" style="fill:#263238;" points="291.116,351.332 269.525,338.867 269.525,361.803 291.116,374.268 
											"/>
					<polygon id="XMLID_594_" style="fill:#FAFAFA;" points="270.852,361.034 270.852,339.633 291.116,351.332 291.116,372.734 
											"/>
					<polygon id="XMLID_588_" style="fill:#F0F0F0;" points="270.852,339.633 270.852,344.623 291.116,356.323 291.116,351.332 
											"/>
					<polygon id="XMLID_582_" style="fill:#37474F;" points="269.525,361.803 270.852,361.034 291.116,372.734 291.116,374.268 
											"/>
					<polygon id="XMLID_577_" style="fill:#37474F;" points="269.525,350.335 270.852,349.566 291.116,361.265 291.116,362.8 					
						"/>
					<polygon id="XMLID_575_" style="fill:#37474F;" points="279.874,367.777 281.2,368.543 281.2,345.607 279.874,344.841 					"/>
				</g>
			</g>
		</g>
		<polyline id="XMLID_3458_" style="fill:#F0F0F0;" points="374.676,357.942 406.948,376.441 423.776,366.715 391.625,348.152 
			377.12,356.532 		"/>
		<g id="Fence">
			<g id="XMLID_3749_">
				<g id="XMLID_3877_">
					<polygon id="XMLID_3882_" style="fill:#F5F5F5;" points="275.063,402.128 275.063,391.263 273.527,388.084 271.959,389.471 
						271.959,400.336 					"/>
					<polygon id="XMLID_3881_" style="fill:#E0E0E0;" points="275.063,391.263 275.839,390.816 275.839,401.68 275.063,402.128 
											"/>
					<polygon id="XMLID_3880_" style="fill:#FFFFFF;" points="273.527,388.084 274.303,387.618 275.839,390.816 275.063,391.263 
											"/>
				</g>
				<g id="XMLID_3873_">
					<polygon id="XMLID_3876_" style="fill:#F5F5F5;" points="267.131,397.549 267.131,386.684 265.595,383.505 264.027,384.892 
						264.027,395.757 					"/>
					<polygon id="XMLID_3875_" style="fill:#E0E0E0;" points="267.131,386.684 267.907,386.237 267.907,397.101 267.131,397.549 
											"/>
					<polygon id="XMLID_3874_" style="fill:#FFFFFF;" points="265.595,383.505 266.371,383.039 267.907,386.237 267.131,386.684 
											"/>
				</g>
				<g id="XMLID_3869_">
					<polygon id="XMLID_3872_" style="fill:#F5F5F5;" points="259.199,392.97 259.199,382.105 257.663,378.926 256.095,380.313 
						256.095,391.178 					"/>
					<polygon id="XMLID_3871_" style="fill:#E0E0E0;" points="259.199,382.105 259.975,381.658 259.975,392.522 259.199,392.97 
											"/>
					<polygon id="XMLID_3870_" style="fill:#FFFFFF;" points="257.663,378.926 258.439,378.461 259.975,381.658 259.199,382.105 
											"/>
				</g>
				<g id="XMLID_3865_">
					<polygon id="XMLID_3868_" style="fill:#F5F5F5;" points="251.267,388.391 251.267,377.526 249.731,374.347 248.163,375.734 
						248.163,386.599 					"/>
					<polygon id="XMLID_3867_" style="fill:#E0E0E0;" points="251.267,377.526 252.043,377.079 252.043,387.944 251.267,388.391 
											"/>
					<polygon id="XMLID_3866_" style="fill:#FFFFFF;" points="249.731,374.347 250.507,373.882 252.043,377.079 251.267,377.526 
											"/>
				</g>
				<g id="XMLID_3819_">
					<polygon id="XMLID_3864_" style="fill:#F5F5F5;" points="243.335,383.813 243.335,372.948 241.799,369.768 240.231,371.156 
						240.231,382.02 					"/>
					<polygon id="XMLID_3863_" style="fill:#E0E0E0;" points="243.335,372.948 244.111,372.5 244.111,383.365 243.335,383.813 					
						"/>
					<polygon id="XMLID_3862_" style="fill:#FFFFFF;" points="241.799,369.768 242.575,369.303 244.111,372.5 243.335,372.948 					
						"/>
				</g>
				<g id="XMLID_3813_">
					<polygon id="XMLID_3818_" style="fill:#F5F5F5;" points="235.403,379.233 235.403,368.369 233.867,365.189 232.299,366.577 
						232.299,377.441 					"/>
					<polygon id="XMLID_3815_" style="fill:#E0E0E0;" points="235.403,368.369 236.179,367.921 236.179,378.786 235.403,379.233 
											"/>
					<polygon id="XMLID_3814_" style="fill:#FFFFFF;" points="233.867,365.189 234.643,364.724 236.179,367.921 235.403,368.369 
											"/>
				</g>
				<g id="XMLID_3798_">
					<polygon id="XMLID_3804_" style="fill:#F5F5F5;" points="227.471,374.655 227.471,363.79 225.935,360.61 224.367,361.998 
						224.367,372.862 					"/>
					<polygon id="XMLID_3803_" style="fill:#E0E0E0;" points="227.471,363.79 228.247,363.342 228.247,374.207 227.471,374.655 
											"/>
					<polygon id="XMLID_3799_" style="fill:#FFFFFF;" points="225.935,360.61 226.711,360.145 228.247,363.342 227.471,363.79 					
						"/>
				</g>
				<g id="XMLID_3786_">
					<polygon id="XMLID_3795_" style="fill:#F5F5F5;" points="219.539,370.076 219.539,359.211 218.003,356.031 216.435,357.419 
						216.435,368.284 					"/>
					<polygon id="XMLID_3792_" style="fill:#E0E0E0;" points="219.539,359.211 220.315,358.763 220.315,369.628 219.539,370.076 
											"/>
					<polygon id="XMLID_3789_" style="fill:#FFFFFF;" points="218.003,356.031 218.779,355.566 220.315,358.763 219.539,359.211 
											"/>
				</g>
				<g id="XMLID_3771_">
					<polygon id="XMLID_3781_" style="fill:#F5F5F5;" points="211.607,365.497 211.607,354.632 210.071,351.453 208.503,352.84 
						208.503,363.705 					"/>
					<polygon id="XMLID_3778_" style="fill:#E0E0E0;" points="211.607,354.632 212.383,354.184 212.383,365.049 211.607,365.497 
											"/>
					<polygon id="XMLID_3775_" style="fill:#FFFFFF;" points="210.071,351.453 210.847,350.987 212.383,354.184 211.607,354.632 
											"/>
				</g>
				<g id="XMLID_3753_">
					<polygon id="XMLID_3767_" style="fill:#F5F5F5;" points="203.675,360.918 203.675,350.053 202.138,346.874 200.571,348.261 
						200.571,359.126 					"/>
					<polygon id="XMLID_3764_" style="fill:#E0E0E0;" points="203.675,350.053 204.451,349.605 204.451,360.47 203.675,360.918 
											"/>
					<polygon id="XMLID_3756_" style="fill:#FFFFFF;" points="202.138,346.874 202.915,346.408 204.451,349.605 203.675,350.053 
											"/>
				</g>
			</g>
			<g id="XMLID_3725_">
				<polygon id="XMLID_3745_" style="fill:#EBEBEB;" points="278.341,395.178 197.551,348.535 197.551,349.828 278.341,396.472 				
					"/>
				<polygon id="XMLID_3731_" style="fill:#E0E0E0;" points="278.341,395.178 278.858,394.88 278.858,396.173 278.341,396.472 				
					"/>
				<polygon id="XMLID_3728_" style="fill:#FFFFFF;" points="197.551,348.535 278.341,395.178 278.858,394.88 198.072,348.233 				
					"/>
			</g>
			<g id="XMLID_3664_">
				<polygon id="XMLID_3721_" style="fill:#EBEBEB;" points="278.341,399.618 197.551,352.974 197.551,354.268 278.341,400.911 				
					"/>
				<polygon id="XMLID_3718_" style="fill:#E0E0E0;" points="278.341,399.618 278.858,399.32 278.858,400.612 278.341,400.911 				
					"/>
				<polygon id="XMLID_3667_" style="fill:#FFFFFF;" points="197.551,352.974 278.341,399.618 278.858,399.32 198.072,352.673 				
					"/>
			</g>
		</g>
	</g>
</g>
<g id="Tree_1_">
	<g id="Tree">
		<g id="XMLID_2845_">
			
				<rect id="XMLID_2848_" x="449.74" y="315.563" transform="matrix(0.4525 -0.8918 0.8918 0.4525 -31.6448 580.7994)" style="fill:#263238;" width="14.878" height="1.216"/>
		</g>
		<g id="XMLID_2834_">
			
				<rect id="XMLID_2839_" x="449.664" y="307.586" transform="matrix(0.8503 -0.5263 0.5263 0.8503 -97.7603 283.9666)" style="fill:#263238;" width="1.216" height="12.477"/>
		</g>
		<path id="XMLID_2823_" style="fill:#263238;" d="M454.829,306.939v31.974c0,0.15-0.1,0.301-0.298,0.416
			c-0.397,0.229-1.042,0.229-1.439,0c-0.199-0.115-0.298-0.265-0.298-0.416v-31.974H454.829z"/>
		<circle id="XMLID_2822_" style="fill:#27DEBF;" cx="464.152" cy="296.988" r="14.848"/>
		<path id="XMLID_2821_" style="opacity:0.2;" d="M468.806,293.191c1.915-6.03,3.956-8.388,2.661-9.124
			c-2.159-1.226-4.655-1.927-7.315-1.927c-8.201,0-14.848,6.648-14.848,14.848s6.648,14.848,14.848,14.848
			c4.611,0,8.731-2.102,11.454-5.399C471.207,307.721,466.322,301.012,468.806,293.191z"/>
		<circle id="XMLID_2817_" style="fill:#27DEBF;" cx="440.761" cy="301.191" r="10.436"/>
		<path id="XMLID_2815_" style="opacity:0.2;" d="M440.761,290.755c-2.277,0-4.383,0.732-6.099,1.97
			c-0.283,6.374,5.129,12.591,3.617,14.68c-1.525,2.106-5.24,0.806-6.538-0.968c1.809,3.103,5.17,5.189,9.02,5.189
			c5.764,0,10.436-4.672,10.436-10.436C451.196,295.427,446.524,290.755,440.761,290.755z"/>
		<g id="XMLID_2812_">
			
				<ellipse id="XMLID_2813_" transform="matrix(0.2298 -0.9732 0.9732 0.2298 67.3633 664.9952)" style="fill:#27DEBF;" cx="453.811" cy="289.939" rx="19.144" ry="19.144"/>
		</g>
		<path id="XMLID_2811_" style="opacity:0.1;" d="M472.445,294.313c-1.977,8.465-9.566,14.769-18.634,14.769
			c-10.574,0-19.145-8.569-19.145-19.143c0-7.148,3.919-13.382,9.727-16.668c-1.666,0.944-3.176,2.132-4.485,3.513
			c-0.326,1.404-0.506,2.865-0.506,4.371c0,10.574,8.572,19.145,19.143,19.145C464.021,300.301,468.955,297.997,472.445,294.313z"/>
	</g>
</g>
<g id="Speech_Bubble">
	<g id="Speech_Bubble_1_">
		<g id="XMLID_22_">
			<path id="XMLID_27_" style="fill:#27DEBF;" d="M383.503,181.237l-4.353-8.186l3.503-10.111v-6.19l-10.72,6.19v6.189l4.609,7.983
				c0.078,0.135,0.19,0.223,0.313,0.278l-0.003,0.004L383.503,181.237z"/>
			<path id="XMLID_26_" style="opacity:0.2;" d="M383.503,181.237l-4.353-8.186l3.503-10.111v-6.19l-10.72,6.19v6.189l4.609,7.983
				c0.078,0.135,0.19,0.223,0.313,0.278l-0.003,0.004L383.503,181.237z"/>
			<path id="XMLID_25_" style="fill:#27DEBF;" d="M409.103,107.548c0-2.049-1.439-4.542-3.214-5.567l-2.617-1.511
				c-1.775-1.025-4.653-1.025-6.428,0l-40.133,23.212c-1.775,1.025-3.214,3.517-3.214,5.567v44.158c0,2.05,1.439,4.542,3.214,5.567
				l2.617,1.511c1.775,1.025,4.653,1.025,6.428,0l12.908-7.458l4.599,7.967c0.294,0.509,1.051,0.437,1.243-0.118l4.861-14.032
				l16.523-9.571c1.775-1.025,3.214-3.517,3.214-5.567L409.103,107.548z"/>
			<path id="XMLID_24_" style="opacity:0.2;" d="M353.497,173.407c0,2.05,1.439,4.542,3.214,5.567l2.617,1.511
				c1.604,0.926,4.101,1.007,5.879,0.259c-1.513,0.572-2.664-0.281-2.664-2.115l0-44.158c0-1.025,0.36-2.16,0.941-3.168
				l-9.045-5.222c-0.582,1.007-0.941,2.143-0.941,3.167V173.407z"/>
			<path id="XMLID_23_" style="opacity:0.5;fill:#FFFFFF;" d="M408.998,106.634c-0.375-1.365-1.619-1.799-3.103-0.944
				l-40.141,23.218c-0.884,0.51-1.694,1.379-2.264,2.399l-9.041-5.218c0.585-1.02,1.38-1.889,2.264-2.399l40.126-23.218
				c1.784-1.02,4.663-1.02,6.433,0l2.624,1.514C407.409,102.856,408.683,104.805,408.998,106.634z"/>
		</g>
		<g>
			<path style="fill:#FFFFFF;" d="M403.378,120.066c-2.64,6.14,0.62,15.688-1.706,23.269c-2.299,7.503-6.524,10.924-11.07,10.333
				c-0.534-8.497,2.129-17.174,6.529-24.315c-4.195,4.256-9.85,11.328-8.611,24.066c-3.459-1.497-6.622-8.234-2.94-16.518
				C390.647,125.518,403.378,120.066,403.378,120.066z"/>
			<polygon id="XMLID_21_" style="fill:#FFFFFF;" points="375.619,129.66 367.596,150.943 374.488,152.13 372.342,169.261 
				380.698,147.226 373.826,145.731 			"/>
		</g>
	</g>
</g>
<g id="Wind_Turbines">
	<g id="Wind_Turbine">
		<path style="opacity:0.1;" d="M164.68,253.956c6.995,4.039,18.336,4.039,25.332,0c6.995-4.039,6.995-10.587,0-14.626
			c-6.996-4.039-18.337-4.039-25.332,0C157.685,243.369,157.685,249.918,164.68,253.956z"/>
		<g>
			<path style="fill:#37474F;" d="M189.978,245.214h-0.012c0.002-1.866-1.221-3.733-3.688-5.157c-4.933-2.848-12.931-2.848-17.864,0
				c-2.467,1.424-3.69,3.29-3.688,5.157h-0.012v1.745l0,0c0.03,1.842,1.265,3.678,3.7,5.084c4.933,2.848,12.931,2.848,17.864,0
				c2.435-1.406,3.67-3.242,3.7-5.084l0,0V245.214z"/>
			<path id="XMLID_3640_" style="fill:#455A64;" d="M168.414,240.057c-4.933,2.848-4.933,7.465,0,10.314
				c4.933,2.848,12.931,2.848,17.864,0c4.933-2.848,4.933-7.466,0-10.314C181.345,237.209,173.347,237.209,168.414,240.057z"/>
		</g>
		<g>
			<g>
				<path style="fill:#27DEBF;" d="M180.888,244.474h0.007l-1.937-115.972h-0.005c-0.014-0.227-0.167-0.451-0.467-0.624
					c-0.629-0.363-1.65-0.363-2.279,0c-0.3,0.173-0.452,0.398-0.466,0.624h-0.006l-1.94,115.972h0.011
					c-0.03,0.546,0.307,1.098,1.03,1.514c1.387,0.801,3.635,0.801,5.022,0C180.581,245.572,180.918,245.02,180.888,244.474z"/>
				<path style="opacity:0.7;fill:#FFFFFF;" d="M180.888,244.474h0.007l-1.937-115.972h-0.005c-0.014-0.227-0.167-0.451-0.467-0.624
					c-0.629-0.363-1.65-0.363-2.279,0c-0.3,0.173-0.452,0.398-0.466,0.624h-0.006l-1.94,115.972h0.011
					c-0.03,0.546,0.307,1.098,1.03,1.514c1.387,0.801,3.635,0.801,5.022,0C180.581,245.572,180.918,245.02,180.888,244.474z"/>
				<path style="opacity:0.1;" d="M177.339,127.606c-0.41,0.001-0.818,0.091-1.131,0.271c-0.3,0.173-0.452,0.398-0.467,0.624h-0.005
					l-1.94,115.972h0.011c-0.03,0.546,0.307,1.098,1.029,1.514c0.423,0.244,0.929,0.404,1.463,0.5L177.339,127.606z"/>
				<path style="opacity:0.1;fill:#27DEBF;" d="M178.487,127.877c-0.629-0.363-1.65-0.363-2.279,0
					c-0.3,0.173-0.452,0.398-0.467,0.624h-0.005l-0.088,4.789c1.136,0.895,2.33,1.744,3.444,2.49l-0.134-7.279h-0.005
					C178.939,128.275,178.787,128.051,178.487,127.877z"/>
				<path style="opacity:0.1;" d="M178.487,127.877c-0.629-0.363-1.65-0.363-2.279,0c-0.3,0.173-0.452,0.398-0.467,0.624h-0.005
					l-0.088,4.789c1.136,0.895,2.33,1.744,3.444,2.49l-0.134-7.279h-0.005C178.939,128.275,178.787,128.051,178.487,127.877z"/>
			</g>
			<g>
				<g id="XMLID_1117_">
					<path id="XMLID_3493_" style="fill:#27DEBF;" d="M170.621,122.08c-1.993,4.518,13.145,12.904,13.145,12.904l5.248-11.899
						C189.014,123.085,172.614,117.562,170.621,122.08"/>
					<path id="XMLID_1110_" style="opacity:0.6;fill:#FFFFFF;" d="M170.621,122.08c-1.993,4.518,13.145,12.904,13.145,12.904
						l5.248-11.899C189.014,123.085,172.614,117.562,170.621,122.08"/>
					<path style="opacity:0.3;fill:#FFFFFF;" d="M171.403,121.161c0.192,1.041,1.688,2.357,3.312,3.424
						c2.117,1.39,10.188,4.987,10.188,4.987l1.891-1.452l2.221-5.034C189.015,123.085,175.226,118.445,171.403,121.161z"/>
					<path id="XMLID_1127_" style="fill:#27DEBF;" d="M186.964,134.312c2.366-1.732,4.027-5.498,3.71-8.413
						c-0.317-2.915-2.491-3.874-4.857-2.142c-2.366,1.732-4.027,5.498-3.711,8.413C182.423,135.084,184.598,136.043,186.964,134.312
						z"/>
					<path id="XMLID_1105_" style="opacity:0.8;fill:#FFFFFF;" d="M186.964,134.312c2.366-1.732,4.027-5.498,3.71-8.413
						c-0.317-2.915-2.491-3.874-4.857-2.142c-2.366,1.732-4.027,5.498-3.711,8.413C182.423,135.084,184.598,136.043,186.964,134.312
						z"/>
				</g>
				<g id="XMLID_658_">
					<path id="XMLID_1107_" style="fill:#37474F;" d="M187.666,125.507l1.453,0.641l-0.497,1.127
						c0.109,1.606-0.766,3.591-2.025,4.592l-0.497,1.128l-1.459-0.643l0,0c-0.505-0.224-0.862-0.78-0.954-1.618
						c-0.182-1.677,0.774-3.845,2.136-4.843C186.505,125.392,187.16,125.282,187.666,125.507z"/>
					<path id="XMLID_949_" style="fill:#455A64;" d="M190.075,127.767c0.182,1.679-0.775,3.847-2.136,4.843
						c-1.361,0.996-2.613,0.444-2.795-1.233c-0.182-1.677,0.774-3.845,2.136-4.843C188.641,125.538,189.893,126.09,190.075,127.767z
						"/>
					<path id="XMLID_747_" style="fill:#263238;" d="M188.833,128.676c0.09,0.833-0.384,1.909-1.06,2.404
						c-0.676,0.495-1.297,0.221-1.388-0.612c-0.09-0.833,0.384-1.909,1.06-2.404C188.122,127.569,188.743,127.843,188.833,128.676z"
						/>
				</g>
			</g>
			<g>
				<ellipse transform="matrix(0.3916 -0.9202 0.9202 0.3916 -5.0573 251.5105)" style="opacity:0.05;fill:#27DEBF;" cx="187.651" cy="129.579" rx="53.199" ry="30.097"/>
				
				<path style="opacity:0.1;fill:#27DEBF;" d="M187.651,129.579l34.654-23.371c-0.45-8.094-2.552-14.623-5.885-19.242
					l-28.151,39.547L187.651,129.579z"/>
				<path style="opacity:0.2;fill:#27DEBF;" d="M216.419,86.966c-4.628-6.412-11.613-9.15-19.783-7.341l-0.099,0.099
					c0,0-7.206,24.111-8.886,34.534c-1.68,10.423,0.617,12.255,0.617,12.255L216.419,86.966z"/>
				<path style="opacity:0.1;fill:#27DEBF;" d="M187.651,129.579l-19.512-27.067c-5.201,7.699-9.179,16.294-11.762,24.907
					l29.205,3.998L187.651,129.579z"/>
				<path style="opacity:0.2;fill:#27DEBF;" d="M156.377,127.419c-3.586,11.956-4.492,23.931-2.296,33.55l0.077,0.049
					c0,0,16.561-11.217,23.541-18.033c6.98-6.816,7.883-11.569,7.883-11.569L156.377,127.419z"/>
				<path style="opacity:0.1;fill:#27DEBF;" d="M187.651,129.579l-15.142,50.439c5.651,0.395,11.731-1.671,17.648-5.665
					l-1.054-43.545L187.651,129.579z"/>
				<path style="opacity:0.2;fill:#27DEBF;" d="M190.157,174.353c8.214-5.544,16.105-14.78,22.078-26.209l0.023-0.149
					c0,0-9.356-12.895-14.655-16.501c-5.299-3.607-8.5-0.686-8.5-0.686L190.157,174.353z"/>
				<g>
					<path style="fill:#455A64;" d="M188.716,123.745l7.795-42.82c0.182-1.001-0.622-1.206-1.14-0.287
						c-1.893,3.356-5.1,10.189-8.054,21.936c-4.183,16.631-3.396,23.16-0.272,23.224
						C187.726,125.812,188.521,124.82,188.716,123.745z"/>
					<path style="fill:#455A64;" d="M183.696,133.273l-28.787,26.78c-0.673,0.626-0.706,1.908-0.044,1.814
						c2.416-0.341,7.255-1.923,15.254-8.15c11.325-8.816,15.467-15.607,15.118-19.948
						C185.162,132.823,184.418,132.602,183.696,133.273z"/>
					<path style="fill:#455A64;" d="M190.512,131.821l20.992,16.04c0.491,0.375,1.327-0.702,1.184-1.527
						c-0.524-3.015-2.156-8.266-7.2-13.786c-7.142-7.815-12.071-7.552-14.846-3.276
						C190.036,130.204,189.985,131.418,190.512,131.821z"/>
				</g>
			</g>
		</g>
	</g>
	<g id="Wind_Turbine_1_">
		<path style="opacity:0.1;" d="M78.778,303.552c6.995,4.039,18.336,4.039,25.332,0c6.996-4.039,6.996-10.587,0-14.626
			c-6.996-4.039-18.337-4.039-25.332,0C71.783,292.965,71.783,299.513,78.778,303.552z"/>
		<g>
			<path style="fill:#37474F;" d="M104.076,294.809h-0.012c0.002-1.867-1.222-3.733-3.688-5.157c-4.933-2.848-12.931-2.848-17.864,0
				c-2.467,1.424-3.69,3.29-3.688,5.157h-0.012v1.745l0,0c0.029,1.842,1.265,3.678,3.7,5.084c4.933,2.848,12.931,2.848,17.864,0
				c2.435-1.406,3.671-3.242,3.7-5.084l0,0V294.809z"/>
			<path id="XMLID_3648_" style="fill:#455A64;" d="M82.512,289.652c-4.933,2.848-4.933,7.465,0,10.314
				c4.933,2.848,12.931,2.848,17.864,0c4.933-2.848,4.933-7.466,0-10.314C95.443,286.804,87.445,286.804,82.512,289.652z"/>
		</g>
		<g>
			<g>
				<path style="fill:#27DEBF;" d="M94.986,294.07h0.007l-1.937-115.972h-0.005c-0.014-0.227-0.167-0.451-0.466-0.624
					c-0.629-0.363-1.65-0.363-2.279,0c-0.3,0.173-0.452,0.398-0.466,0.624h-0.006l-1.94,115.972h0.011
					c-0.03,0.546,0.307,1.098,1.03,1.514c1.387,0.801,3.635,0.801,5.022,0C94.679,295.167,95.016,294.616,94.986,294.07z"/>
				<path style="opacity:0.7;fill:#FFFFFF;" d="M94.986,294.07h0.007l-1.937-115.972h-0.005c-0.014-0.227-0.167-0.451-0.466-0.624
					c-0.629-0.363-1.65-0.363-2.279,0c-0.3,0.173-0.452,0.398-0.466,0.624h-0.006l-1.94,115.972h0.011
					c-0.03,0.546,0.307,1.098,1.03,1.514c1.387,0.801,3.635,0.801,5.022,0C94.679,295.167,95.016,294.616,94.986,294.07z"/>
				<path style="opacity:0.1;" d="M91.437,177.201c-0.409,0.001-0.818,0.091-1.131,0.271c-0.3,0.173-0.452,0.398-0.466,0.624h-0.006
					l-1.94,115.972h0.011c-0.03,0.546,0.308,1.098,1.03,1.515c0.423,0.244,0.929,0.404,1.463,0.5L91.437,177.201z"/>
				<path style="opacity:0.1;fill:#27DEBF;" d="M92.585,177.473c-0.629-0.363-1.65-0.363-2.279,0
					c-0.3,0.173-0.452,0.398-0.466,0.624h-0.006l-0.088,4.789c1.136,0.895,2.33,1.744,3.444,2.49l-0.134-7.279h-0.005
					C93.037,177.87,92.885,177.646,92.585,177.473z"/>
				<path style="opacity:0.1;" d="M92.585,177.473c-0.629-0.363-1.65-0.363-2.279,0c-0.3,0.173-0.452,0.398-0.466,0.624h-0.006
					l-0.088,4.789c1.136,0.895,2.33,1.744,3.444,2.49l-0.134-7.279h-0.005C93.037,177.87,92.885,177.646,92.585,177.473z"/>
			</g>
			<g>
				<g id="XMLID_3523_">
					<path id="XMLID_3604_" style="fill:#27DEBF;" d="M84.719,171.675c-1.993,4.518,13.145,12.904,13.145,12.904l5.248-11.899
						C103.113,172.681,86.712,167.158,84.719,171.675"/>
					<path id="XMLID_3596_" style="opacity:0.6;fill:#FFFFFF;" d="M84.719,171.675c-1.993,4.518,13.145,12.904,13.145,12.904
						l5.248-11.899C103.113,172.681,86.712,167.158,84.719,171.675"/>
					<path style="opacity:0.3;fill:#FFFFFF;" d="M85.502,170.756c0.192,1.041,1.688,2.357,3.312,3.424
						c2.117,1.39,10.188,4.987,10.188,4.987l1.891-1.452l2.22-5.035C103.113,172.681,89.324,168.04,85.502,170.756z"/>
					<path id="XMLID_3579_" style="fill:#27DEBF;" d="M101.062,183.907c2.366-1.732,4.027-5.498,3.71-8.413
						c-0.317-2.915-2.491-3.874-4.857-2.142c-2.366,1.732-4.027,5.498-3.711,8.413C96.521,184.68,98.696,185.639,101.062,183.907z"
						/>
					<path id="XMLID_3562_" style="opacity:0.8;fill:#FFFFFF;" d="M101.062,183.907c2.366-1.732,4.027-5.498,3.71-8.413
						c-0.317-2.915-2.491-3.874-4.857-2.142c-2.366,1.732-4.027,5.498-3.711,8.413C96.521,184.68,98.696,185.639,101.062,183.907z"
						/>
				</g>
				<g id="XMLID_1113_">
					<path id="XMLID_3497_" style="fill:#37474F;" d="M101.764,175.103l1.453,0.641l-0.497,1.127
						c0.109,1.606-0.766,3.591-2.025,4.592l-0.497,1.128l-1.459-0.643l0,0c-0.505-0.224-0.862-0.78-0.954-1.618
						c-0.182-1.677,0.774-3.845,2.136-4.843C100.603,174.988,101.258,174.878,101.764,175.103z"/>
					<path id="XMLID_1116_" style="fill:#455A64;" d="M104.173,177.362c0.182,1.679-0.775,3.847-2.136,4.843
						c-1.361,0.996-2.613,0.444-2.795-1.233c-0.182-1.677,0.774-3.845,2.136-4.843C102.739,175.133,103.991,175.685,104.173,177.362
						z"/>
					<path id="XMLID_1114_" style="fill:#263238;" d="M102.932,178.271c0.09,0.833-0.384,1.909-1.06,2.404
						c-0.676,0.494-1.297,0.22-1.388-0.612c-0.09-0.832,0.384-1.908,1.06-2.404C102.22,177.165,102.841,177.439,102.932,178.271z"/>
				</g>
			</g>
			<g>
				
					<ellipse transform="matrix(0.3916 -0.9202 0.9202 0.3916 -102.9598 202.6438)" style="opacity:0.05;fill:#27DEBF;" cx="101.749" cy="179.175" rx="53.2" ry="30.097"/>
				<path style="opacity:0.1;fill:#27DEBF;" d="M101.749,179.175l34.653-23.371c-0.45-8.094-2.552-14.623-5.885-19.242
					l-28.151,39.547L101.749,179.175z"/>
				<path style="opacity:0.2;fill:#27DEBF;" d="M130.517,136.561c-4.628-6.412-11.613-9.15-19.783-7.342l-0.099,0.099
					c0,0-7.206,24.111-8.886,34.534c-1.68,10.423,0.617,12.255,0.617,12.255L130.517,136.561z"/>
				<path style="opacity:0.1;fill:#27DEBF;" d="M101.749,179.175l-19.512-27.067c-5.201,7.699-9.179,16.294-11.762,24.907
					l29.205,3.998L101.749,179.175z"/>
				<path style="opacity:0.2;fill:#27DEBF;" d="M70.475,177.014c-3.586,11.956-4.492,23.931-2.296,33.55l0.077,0.049
					c0,0,16.561-11.217,23.541-18.033c6.98-6.816,7.883-11.569,7.883-11.569L70.475,177.014z"/>
				<path style="opacity:0.1;fill:#27DEBF;" d="M101.749,179.175l-15.142,50.438c5.651,0.395,11.731-1.671,17.648-5.665
					l-1.054-43.545L101.749,179.175z"/>
				<path style="opacity:0.2;fill:#27DEBF;" d="M104.255,223.949c8.214-5.544,16.105-14.78,22.078-26.209l0.023-0.149
					c0,0-9.356-12.894-14.655-16.501c-5.299-3.607-8.5-0.686-8.5-0.686L104.255,223.949z"/>
				<g>
					<path style="fill:#455A64;" d="M102.814,173.341l7.795-42.82c0.182-1.001-0.622-1.206-1.14-0.287
						c-1.893,3.356-5.1,10.189-8.054,21.936c-4.183,16.63-3.396,23.16-0.272,23.224
						C101.824,175.408,102.619,174.415,102.814,173.341z"/>
					<path style="fill:#455A64;" d="M97.794,182.869l-28.787,26.78c-0.673,0.626-0.706,1.908-0.044,1.814
						c2.416-0.341,7.256-1.923,15.254-8.15c11.325-8.816,15.467-15.607,15.118-19.948C99.26,182.419,98.516,182.197,97.794,182.869z
						"/>
					<path style="fill:#455A64;" d="M104.61,181.416l20.992,16.04c0.491,0.375,1.327-0.702,1.184-1.527
						c-0.524-3.015-2.156-8.267-7.2-13.786c-7.142-7.815-12.071-7.552-14.846-3.276C104.134,179.8,104.083,181.014,104.61,181.416z"
						/>
				</g>
			</g>
		</g>
	</g>
</g>
</svg>
